<?xml version="1.0" encoding="UTF-8" standalone="no"?>
<svg
   xmlns:dc="http://purl.org/dc/elements/1.1/"
   xmlns:cc="http://creativecommons.org/ns#"
   xmlns:rdf="http://www.w3.org/1999/02/22-rdf-syntax-ns#"
   xmlns:svg="http://www.w3.org/2000/svg"
   xmlns="http://www.w3.org/2000/svg"
   id="svg9179"
   version="1.1"
   viewBox="0 0 33.866666 33.866668"
   height="128"
   width="128">
  <defs
     id="defs9173" />
  <metadata
     id="metadata9176">
    <rdf:RDF>
      <cc:Work
         rdf:about="">
        <dc:format>image/svg+xml</dc:format>
        <dc:type
           rdf:resource="http://purl.org/dc/dcmitype/StillImage" />
        <dc:title></dc:title>
      </cc:Work>
    </rdf:RDF>
  </metadata>
  <g
     transform="translate(0,-263.13332)"
     id="layer1">
    <g
       style="fill:#333333;fill-opacity:1"
       transform="matrix(0.50112219,0,0,0.50112219,-0.03800479,148.20471)"
       id="layer1-3">
      <path
         style="fill:#333333;fill-opacity:1;stroke:none;stroke-width:2.28204417;image-rendering:auto"
         id="search"
         d="M 64.973355,283.71029 48.542637,268.6488 c 2.05384,-3.65125 3.194864,-7.98714 3.194864,-12.55126 0,-14.14862 -11.410225,-25.55887 -25.558894,-25.55887 -14.148679,0 -25.55890284,11.41025 -25.55890284,25.55887 0,14.1487 11.41022384,25.55896 25.55890284,25.55896 4.564083,0 8.899974,-1.14102 12.551241,-3.1949 l 16.658921,15.51793 c 2.738454,2.51024 7.074344,2.28202 9.584586,-0.45626 2.966664,-2.96667 2.738453,-7.30257 0,-9.81281 z M 6.3248209,256.09754 c 0,-11.18194 9.1281751,-20.08196 20.0819881,-20.08196 10.953813,0 20.081987,9.12815 20.081987,20.08196 0,10.95381 -9.128174,20.08205 -20.081987,20.08205 -10.953813,0 -20.0819881,-8.90002 -20.0819881,-20.08205 z"
         class="st0" />
    </g>
    <path
       id="path9732"
       d="m 12.057153,271.09086 v 4.36144 H 7.9621818 c 0,0 -0.8724643,0.17931 -0.865628,0.9322 0.00684,0.75292 0.865628,0.89893 0.865628,0.89893 h 4.0949712 v 4.39473 c 0,0 0.01314,0.98217 0.93233,0.98217 0.919184,0 0.932446,-0.98217 0.932446,-0.98217 v -4.39473 h 3.628749 c 0,0 1.389653,0.14108 1.39832,-0.89893 0.0088,-1.03997 -1.39832,-0.9322 -1.39832,-0.9322 h -3.628749 v -4.36144 c 0,0 0.01818,-1.12387 -0.932446,-1.13198 -0.950624,-0.009 -0.93233,1.13198 -0.93233,1.13198 z"
       style="fill:#333333;fill-opacity:1;stroke:none;stroke-width:0.18644296px;stroke-linecap:butt;stroke-linejoin:miter;stroke-opacity:1" />
  </g>
</svg>
